Coordinates
version=1
nRows=8
nColumns=63
inDegrees=yes

Units are S.I. units (second, meters, Newtons, ...)
If the header above contains a line with 'inDegrees', this indicates whether rotational values are in degrees (yes) or radians (no).

endheader
time	pelvis_tilt	pelvis_list	pelvis_rotation	pelvis_tx	pelvis_ty	pelvis_tz	hip_flexion_r	hip_adduction_r	hip_rotation_r	knee_angle_r	knee_angle_r_beta	ankle_angle_r	subtalar_angle_r	mtp_angle_r	hip_flexion_l	hip_adduction_l	hip_rotation_l	knee_angle_l	knee_angle_l_beta	ankle_angle_l	subtalar_angle_l	mtp_angle_l	L5_S1_Flex_Ext	L5_S1_Lat_Bending	L5_S1_axial_rotation	L4_L5_Flex_Ext	L4_L5_Lat_Bending	L4_L5_axial_rotation	L3_L4_Flex_Ext	L3_L4_Lat_Bending	L3_L4_axial_rotation	L2_L3_Flex_Ext	L2_L3_Lat_Bending	L2_L3_axial_rotation	L1_L2_Flex_Ext	L1_L2_Lat_Bending	L1_L2_axial_rotation	L1_T12_Flex_Ext	L1_T12_Lat_Bending	L1_T12_axial_rotation	Abs_r3	Abs_r2	Abs_r1	Abs_t1	Abs_t2	neck_flexion	neck_bending	neck_rotation	arm_flex_r	arm_add_r	arm_rot_r	elbow_flex_r	pro_sup_r	wrist_flex_r	wrist_dev_r	arm_flex_l	arm_add_l	arm_rot_l	elbow_flex_l	pro_sup_l	wrist_flex_l	wrist_dev_l
      0.00000000	     -5.65009035	     -7.77544207	     92.81626890	      0.20112756	      0.96247941	      0.61268878	      1.78265037	     -2.90282941	    -16.27445280	     13.72680953	      0.23957802	     40.28687190	     15.73841326	      0.00000000	      2.08944015	      0.02247523	     -4.49998570	     10.81398885	      0.18873971	     39.42873248	     15.75746384	      0.00000000	     -0.26307487	     -0.08975540	     -0.27727430	     -0.48855633	     -0.11937468	     -0.29460395	     -0.43220570	     -0.21823129	     -0.29460395	     -0.30066826	     -0.21823129	     -0.24261502	     -0.24429132	     -0.18302922	     -0.22528537	     -0.15032098	     -0.13903112	     -0.20795573	     -1.87911746	     -1.01533106	     -1.54211650	      0.00000000	      0.00000000	     21.71900062	     -1.43647912	     -2.65642975	     23.44801240	      4.24024348	     78.25598593	     22.27036306	     38.89413491	     -4.29557503	      0.13308529	     28.55884162	      7.21208394	    178.07105914	      0.69170020	      4.60924143	     -6.03165196	     -3.96020226
      0.02083333	     -5.81847280	     -7.62061321	     94.09532881	      0.19963886	      0.96344034	      0.61075465	      0.85945894	     -2.86965706	    -16.80933787	     13.09542732	      0.22855832	     39.40695657	     15.26728016	      0.00000000	      2.37930767	      0.06665545	     -4.22855718	     11.89732719	      0.20764753	     39.57360454	     16.70202099	      0.00000000	     -0.25914668	     -0.09595209	     -0.51102319	     -0.48126131	     -0.12761627	     -0.54296214	     -0.42575209	     -0.23329790	     -0.54296214	     -0.29617875	     -0.23329790	     -0.44714529	     -0.24064361	     -0.19566549	     -0.41520634	     -0.14807642	     -0.14862978	     -0.38326740	     -1.85105885	     -1.08542919	     -2.84215769	      0.00000000	      0.00000000	     21.59303655	     -1.35752331	     -1.47467768	     24.40946543	      4.70860149	     85.50809477	     20.93627172	     33.44883078	     -3.91292882	     -1.13970782	     28.32780769	      7.44567720	    185.05179303	      0.50535214	     13.54868394	     -6.78880961	     -4.57888125
      0.04166667	     -5.99096807	     -7.52342876	     95.20426202	      0.19837245	      0.96398808	      0.60896563	      0.17604051	     -2.87929253	    -17.29979539	     12.68972133	      0.22147742	     38.85073834	     14.79749704	      0.00000000	      2.53218394	      0.18441158	     -3.58525258	     12.53461644	      0.21877033	     39.65307228	     17.00392894	      0.00000000	     -0.24217518	     -0.11210927	     -0.74240709	     -0.44974353	     -0.14910533	     -0.78880753	     -0.39786960	     -0.27258248	     -0.78880753	     -0.27678201	     -0.27258248	     -0.64960620	     -0.22488387	     -0.22861322	     -0.60320576	     -0.13837890	     -0.17365726	     -0.55680532	     -1.72983309	     -1.26820249	     -4.12904550	      0.00000000	      0.00000000	     21.44326360	     -1.20423731	     -0.90487575	     24.39496822	      4.99799103	     86.89851794	     20.48524728	     33.60066600	     -3.77684215	     -1.22693281	     28.07202035	      7.49394400	    189.17154276	      0.44005047	     17.69743583	     -6.80428657	     -5.14175760
      0.06250000	     -6.39193168	     -7.40689746	     95.67649624	      0.19820629	      0.96454219	      0.60774213	     -0.21376883	     -3.20095654	    -17.45832797	     12.69160949	      0.22151037	     38.60804197	     14.49215521	      0.00000000	      2.62470287	      0.49018162	     -3.60253927	     13.17207348	      0.22989605	     39.65118003	     17.39595811	      0.00000000	     -0.22992213	     -0.15918910	     -0.91278158	     -0.42698839	     -0.21172151	     -0.96983043	     -0.37773907	     -0.38705238	     -0.96983043	     -0.26277800	     -0.38705238	     -0.79868388	     -0.21350569	     -0.32461842	     -0.74163504	     -0.13137751	     -0.24658392	     -0.68458619	     -1.64231079	     -1.80077896	     -5.07661733	      0.00000000	      0.00000000	     21.11940347	     -1.44001423	     -0.63423149	     26.03376534	      6.74828567	    102.95261092	     17.65632571	     18.24096874	     -1.98160887	     -3.94182142	     27.79101552	      7.31334400	    188.47570815	      0.42203598	     24.95989955	     -7.75978134	     -4.98935121
      0.08333333	     -6.58687403	     -7.35867850	     96.03876153	      0.19799404	      0.96453883	      0.60631446	     -0.44684039	     -3.24608310	    -16.63355129	     12.66928713	      0.22112077	     38.44090008	     13.03140855	      0.00000000	      2.57983439	      0.63314641	     -3.51636297	     13.34002928	      0.23282743	     39.85486495	     17.55306364	      0.00000000	     -0.19774181	     -0.19064668	     -1.03572846	     -0.36722631	     -0.25356008	     -1.10046149	     -0.32487002	     -0.46353833	     -1.10046149	     -0.22599911	     -0.46353833	     -0.90626240	     -0.18362304	     -0.38876671	     -0.84152937	     -0.11298967	     -0.29531170	     -0.77679634	     -1.41244996	     -2.15663335	     -5.76041098	      0.00000000	      0.00000000	     20.61031460	     -1.31042965	     -0.87092469	     25.40464035	      6.73472194	     99.76005895	     18.10072069	     20.80040277	     -2.28429350	     -3.40100533	     27.54369122	      7.09309922	    188.43541569	      0.43038738	     26.68353964	     -8.09010208	     -4.97759013
      0.10416667	     -6.71505976	     -7.37355601	     96.43715797	      0.19753224	      0.96439350	      0.60582473	     -0.41360412	     -3.50681665	    -17.82631744	     13.06184497	      0.22797220	     38.75355535	     13.95329968	      0.00000000	      2.85734859	      0.70504181	     -3.58931177	     13.94116103	      0.24331916	     40.19281960	     17.79025524	      0.00000000	     -0.17351933	     -0.21289838	     -1.15656919	     -0.32224274	     -0.28315485	     -1.22885476	     -0.28507490	     -0.51764112	     -1.22885476	     -0.19831524	     -0.51764112	     -1.01199804	     -0.16113005	     -0.43414238	     -0.93971247	     -0.09914894	     -0.32977959	     -0.86742689	     -1.23943121	     -2.40834907	     -6.43249086	      0.00000000	      0.00000000	     20.35376579	     -1.52612277	     -1.55053817	     24.71573389	      6.53115977	     95.09131942	     18.85809823	     24.24172419	     -2.69792160	     -2.49751577	     27.51222498	      6.88689233	    189.39914512	      0.43952952	     25.36428571	     -8.17798352	     -4.63779627
      0.12500000	     -6.87358081	     -7.33182069	     96.61447106	      0.19744877	      0.96434701	      0.60551434	     -0.33331069	     -3.72557725	    -18.06751243	     13.47777839	      0.23523161	     39.05636744	     13.93240611	      0.00000000	      2.89160138	      0.83299020	     -3.54656906	     14.15262918	      0.24700998	     40.31645744	     17.82749365	      0.00000000	     -0.16167654	     -0.24372549	     -1.20120319	     -0.30024950	     -0.32415490	     -1.27627839	     -0.26561839	     -0.59259416	     -1.27627839	     -0.18478012	     -0.59259416	     -1.05105280	     -0.15013283	     -0.49700502	     -0.97597760	     -0.09238197	     -0.37753079	     -0.90090240	     -1.15483935	     -2.75707151	     -6.68073181	      0.00000000	      0.00000000	     19.92742929	     -1.61188652	     -2.52413546	     24.14906592	      6.42804443	     91.41565823	     19.36927025	     27.80710102	     -3.17549790	     -2.09533082	     27.54992290	      6.67571824	    189.80217505	      0.46455804	     23.05981469	     -8.05926049	     -4.47393633
      0.14583333	     -7.09067251	     -7.28348896	     96.26632694	      0.19804820	      0.96432737	      0.60562217	     -0.03434184	     -4.02927062	    -17.62165350	     14.11311673	      0.24632035	     39.43684448	     13.71468618	      0.00000000	      2.79493233	      1.02320524	     -3.96567951	     14.11484104	      0.24635045	     40.37890094	     17.86373389	      0.00000000	     -0.16339483	     -0.27940007	     -1.13021468	     -0.30344055	     -0.37160210	     -1.20085310	     -0.26844137	     -0.67933334	     -1.20085310	     -0.18674396	     -0.67933334	     -0.98893785	     -0.15172844	     -0.56975263	     -0.91829943	     -0.09336381	     -0.43279071	     -0.84766101	     -1.16711296	     -3.16062952	     -6.28591499	      0.00000000	      0.00000000	     19.62628484	     -1.66997874	     -3.43041711	     23.96126560	      6.45542551	     90.06167375	     19.54061388	     28.72035896	     -3.33730533	     -2.17943099	     27.69973920	      6.47693218	    190.60123224	      0.50184825	     18.98697344	     -7.65374752	     -4.51428997
